<svg xmlns="http://www.w3.org/2000/svg" version="1.1" xmlns:xlink="http://www.w3.org/1999/xlink" xmlns:svgjs="http://svgjs.com/svgjs" width="1000" height="1000"><rect width="1000" height="1000" rx="200" ry="200" fill="#555555"></rect><g transform="matrix(23.529411764705884,0,0,23.529411764705884,163.62365408592365,101.70618851921137)"><svg xmlns="http://www.w3.org/2000/svg" version="1.1" xmlns:xlink="http://www.w3.org/1999/xlink" xmlns:svgjs="http://svgjs.com/svgjs" width="29" height="34"><svg width="29" height="34" viewBox="0 0 29 34" fill="none" xmlns="http://www.w3.org/2000/svg">
<path d="M15.9161 22.2618C12.6002 19.9639 10.7095 16.8516 9.42969 13.0993C11.7567 12.983 13.2692 14.1465 14.4909 15.7463C15.9452 17.6078 16.6433 19.7312 15.9161 22.2618Z" fill="white"></path>
<path d="M28.5397 14.7863C28.5397 16.7352 28.1616 18.5677 27.4053 20.3129C26.649 22.0582 25.631 23.5416 24.3511 24.8505C23.8566 25.345 23.304 25.8104 22.7222 26.2176L24.0603 33.4313C24.0603 33.4313 20.9188 30.9589 17.7774 28.5446C16.6721 28.8355 15.5086 28.9809 14.2869 28.9809C12.3381 28.9809 10.5056 28.6028 8.76036 27.8465C8.35314 27.672 7.94591 27.4684 7.56778 27.2648C7.50961 27.2357 7.48052 27.2066 7.42234 27.1775C7.45143 27.1484 7.48052 27.1193 7.5096 27.1193C7.56778 27.0612 7.62596 27.0321 7.71322 27.003C8.2077 26.7703 8.6731 26.5376 9.19667 26.3631C12.2508 25.4323 15.3923 24.996 18.5919 25.2287C19.9008 25.345 20.5407 24.7924 20.4534 23.5125C20.3953 22.5526 20.2207 21.5928 19.9008 20.6911C18.6791 17.1424 16.6139 14.0883 14.0542 11.354C12.7162 9.92877 11.32 8.56167 9.54571 7.68905C9.02214 7.42727 8.38222 7.28183 7.82957 7.34001C6.66608 7.51453 6.11342 8.41623 6.3752 9.75425C6.52064 10.5978 6.40429 11.354 6.08433 12.1103C4.80449 15.1354 3.32104 18.015 1.31402 20.5747C1.25585 20.4584 1.19767 20.342 1.16858 20.2547C0.412315 18.5095 0.0341797 16.677 0.0341797 14.7282C0.0341797 12.7502 0.412315 10.8886 1.16858 9.14341C1.92485 7.39818 2.94291 5.88564 4.22275 4.6058C5.53167 3.32596 7.04421 2.30791 8.76036 1.55164C10.5056 0.795373 12.3381 0.417236 14.2869 0.417236C16.2649 0.417236 18.0974 0.795373 19.8426 1.55164C21.5588 2.30791 23.0713 3.32596 24.3511 4.6058C25.631 5.88564 26.649 7.39818 27.4053 9.14341C28.1616 10.9468 28.5397 12.8084 28.5397 14.7863ZM14.985 10.0451C15.3923 10.2196 15.8286 10.0451 16.0031 9.6379L17.6029 5.94382C17.7774 5.53659 17.6029 5.10029 17.1957 4.92576C16.7884 4.75124 16.3521 4.92576 16.1776 5.33299L14.5778 9.02707C14.4905 9.25977 14.4905 9.52155 14.6069 9.72516C14.7232 9.8706 14.8396 9.98695 14.985 10.0451ZM18.4464 13.1575C18.6791 13.5065 19.1736 13.5938 19.5226 13.3611L22.9259 11.005C23.2749 10.7723 23.3622 10.2778 23.1295 9.92877C22.8968 9.57972 22.4023 9.49246 22.0532 9.72516L18.65 12.0812C18.301 12.343 18.2137 12.8084 18.4464 13.1575ZM21.0061 18.1605L24.962 17.6078C25.3983 17.5496 25.6891 17.1424 25.631 16.7352C25.5728 16.2989 25.1656 16.008 24.7584 16.0662L20.8025 16.6188C20.3662 16.677 20.0753 17.0842 20.1335 17.4915C20.1626 17.6369 20.2207 17.7532 20.308 17.8696C20.4534 18.0732 20.7152 18.1896 21.0061 18.1605Z" fill="white"></path>
</svg></svg></g></svg>