<svg width="14" height="25" viewBox="0 0 14 25" fill="none" xmlns="http://www.w3.org/2000/svg">
<path d="M12.999 0.505238L9.88679 0.500244C6.3903 0.500244 4.13072 2.8185 4.13072 6.40661V9.12985H1.00151C0.731113 9.12985 0.512146 9.34906 0.512146 9.61946V13.5651C0.512146 13.8355 0.731363 14.0545 1.00151 14.0545H4.13072V24.0106C4.13072 24.281 4.34969 24.5 4.62009 24.5H8.70282C8.97322 24.5 9.19218 24.2808 9.19218 24.0106V14.0545H12.851C13.1214 14.0545 13.3403 13.8355 13.3403 13.5651L13.3418 9.61946C13.3418 9.48963 13.2901 9.36529 13.1985 9.27341C13.1069 9.18153 12.982 9.12985 12.8522 9.12985H9.19218V6.82133C9.19218 5.71176 9.45659 5.14849 10.902 5.14849L12.9985 5.14774C13.2687 5.14774 13.4876 4.92852 13.4876 4.65837V0.994606C13.4876 0.724704 13.2689 0.505737 12.999 0.505238Z" fill="white" fill-opacity="0.88"/>
</svg>
