<svg width="28" height="28" viewBox="0 0 28 28" fill="none" xmlns="http://www.w3.org/2000/svg">
<path d="M25.9999 14C25.9999 7.37601 20.6239 2.00003 14 2.00003C7.37598 2.00003 2 7.37601 2 14C2 20.624 7.37598 25.9999 14 25.9999" stroke="#F9931F" stroke-width="2.4" stroke-linecap="round" stroke-linejoin="round"/>
<path d="M9.19947 3.19992H10.3995C8.05947 10.2079 8.05947 17.7919 10.3995 24.7998H9.19947" stroke="#F9931F" stroke-width="2.4" stroke-linecap="round" stroke-linejoin="round"/>
<path d="M17.6005 3.2001C18.7645 6.70409 19.3525 10.3521 19.3525 14.0001" stroke="#F9931F" stroke-width="2.4" stroke-linecap="round" stroke-linejoin="round"/>
<path d="M3.19971 18.8002V17.6002C6.7037 18.7642 10.3517 19.3522 13.9997 19.3522" stroke="#F9931F" stroke-width="2.4" stroke-linecap="round" stroke-linejoin="round"/>
<path d="M3.19971 10.4003C10.2077 8.06027 17.7917 8.06027 24.7996 10.4003" stroke="#F9931F" stroke-width="2.4" stroke-linecap="round" stroke-linejoin="round"/>
<path d="M21.4405 25.2801C23.5613 25.2801 25.2805 23.5609 25.2805 21.4402C25.2805 19.3194 23.5613 17.6002 21.4405 17.6002C19.3198 17.6002 17.6005 19.3194 17.6005 21.4402C17.6005 23.5609 19.3198 25.2801 21.4405 25.2801Z" stroke="#F9931F" stroke-width="2.4" stroke-linecap="round" stroke-linejoin="round"/>
<path d="M26.0002 26L24.8002 24.8" stroke="#F9931F" stroke-width="2.4" stroke-linecap="round" stroke-linejoin="round"/>
</svg>
