<svg width="32" height="32" viewBox="0 0 32 32" fill="none" xmlns="http://www.w3.org/2000/svg">
<path d="M11.0804 16.1702C11.0804 13.3555 13.363 11.0731 16.1794 11.0731C18.9958 11.0731 21.2796 13.3555 21.2796 16.1702C21.2796 18.985 18.9958 21.2674 16.1794 21.2674C13.363 21.2674 11.0804 18.985 11.0804 16.1702ZM8.32334 16.1702C8.32334 20.5065 11.8405 24.0216 16.1794 24.0216C20.5183 24.0216 24.0355 20.5065 24.0355 16.1702C24.0355 11.8339 20.5183 8.31888 16.1794 8.31888C11.8405 8.31888 8.32334 11.8339 8.32334 16.1702ZM22.5105 8.00757C22.5104 8.37047 22.6179 8.72525 22.8195 9.02707C23.0211 9.32889 23.3078 9.56417 23.6432 9.70318C23.9786 9.84219 24.3477 9.87867 24.7039 9.80802C25.0601 9.73736 25.3873 9.56274 25.6441 9.30624C25.901 9.04974 26.076 8.72287 26.147 8.36698C26.2179 8.01109 26.1817 7.64215 26.0429 7.30683C25.9041 6.9715 25.6689 6.68484 25.3671 6.48311C25.0652 6.28138 24.7103 6.17362 24.3472 6.17348H24.3465C23.8597 6.17371 23.393 6.36699 23.0488 6.71088C22.7045 7.05477 22.511 7.52114 22.5105 8.00757ZM9.99844 28.6161C8.50681 28.5482 7.69607 28.2999 7.15728 28.0901C6.44299 27.8122 5.93333 27.4812 5.39749 26.9464C4.86164 26.4116 4.52995 25.9028 4.25309 25.1889C4.04306 24.6507 3.7946 23.8402 3.72679 22.3494C3.65262 20.7377 3.63781 20.2536 3.63781 16.1703C3.63781 12.0871 3.65385 11.6043 3.72679 9.99126C3.79472 8.50053 4.04502 7.69161 4.25309 7.15181C4.53117 6.43794 4.86238 5.92859 5.39749 5.39307C5.9326 4.85754 6.44176 4.52605 7.15728 4.24936C7.69582 4.03945 8.50681 3.79114 9.99844 3.72337C11.6111 3.64925 12.0956 3.63445 16.1794 3.63445C20.2632 3.63445 20.7482 3.65047 22.3622 3.72337C23.8538 3.79126 24.6632 4.04141 25.2033 4.24936C25.9176 4.52605 26.4273 4.85828 26.9631 5.39307C27.499 5.92786 27.8295 6.43794 28.1075 7.15181C28.3176 7.69002 28.566 8.50053 28.6338 9.99126C28.708 11.6043 28.7228 12.0871 28.7228 16.1703C28.7228 20.2536 28.708 20.7364 28.6338 22.3494C28.5659 23.8402 28.3162 24.6504 28.1075 25.1889C27.8295 25.9028 27.4983 26.4121 26.9631 26.9464C26.428 27.4807 25.9176 27.8122 25.2033 28.0901C24.6648 28.3 23.8538 28.5483 22.3622 28.6161C20.7495 28.6902 20.2651 28.705 16.1794 28.705C12.0937 28.705 11.6106 28.6902 9.99844 28.6161ZM9.87176 0.972602C8.24305 1.04673 7.13011 1.30483 6.15817 1.6828C5.1516 2.07313 4.29948 2.59679 3.44798 3.44644C2.59647 4.29608 2.07385 5.14903 1.68328 6.15501C1.30508 7.12698 1.04683 8.23864 0.972658 9.86637C0.897263 11.4967 0.880005 12.0179 0.880005 16.1702C0.880005 20.3226 0.897263 20.8438 0.972658 22.4741C1.04683 24.1019 1.30508 25.2135 1.68328 26.1854C2.07385 27.1908 2.5966 28.0447 3.44798 28.894C4.29936 29.7433 5.1516 30.2662 6.15817 30.6576C7.13195 31.0356 8.24305 31.2937 9.87176 31.3678C11.5039 31.442 12.0246 31.4604 16.1794 31.4604C20.3342 31.4604 20.8557 31.4432 22.487 31.3678C24.1159 31.2937 25.2281 31.0356 26.2006 30.6576C27.2066 30.2662 28.0593 29.7437 28.9108 28.894C29.7623 28.0444 30.2838 27.1908 30.6755 26.1854C31.0537 25.2135 31.3132 24.1018 31.3861 22.4741C31.4603 20.8425 31.4776 20.3226 31.4776 16.1702C31.4776 12.0179 31.4603 11.4967 31.3861 9.86637C31.312 8.23851 31.0537 7.12637 30.6755 6.15501C30.2838 5.14965 29.761 4.29743 28.9108 3.44644C28.0607 2.59545 27.2066 2.07313 26.2018 1.6828C25.2281 1.30483 24.1157 1.04551 22.4883 0.972602C20.857 0.898475 20.3354 0.880005 16.1806 0.880005C12.0258 0.880005 11.5039 0.897252 9.87176 0.972602Z" fill="white"/>
</svg>
