<svg width="24" height="26" viewBox="0 0 24 26" fill="none" xmlns="http://www.w3.org/2000/svg">
<path fill-rule="evenodd" clip-rule="evenodd" d="M17.6209 9.3905C19.3382 10.6113 21.3948 11.2636 23.5018 11.2557V7.07991C23.0876 7.08105 22.6745 7.03671 22.2699 6.94767V10.2744C20.1582 10.2781 18.0986 9.61837 16.3821 8.38831V16.9765C16.3769 18.3857 15.9904 19.7673 15.2637 20.9747C14.5369 22.1821 13.497 23.1703 12.2541 23.8346C11.0112 24.4988 9.61171 24.8143 8.20404 24.7477C6.79636 24.681 5.43297 24.2346 4.25843 23.4559C5.34485 24.5551 6.73303 25.3072 8.24719 25.617C9.76135 25.9268 11.3334 25.7803 12.7642 25.196C14.195 24.6117 15.4203 23.616 16.2849 22.335C17.1494 21.0539 17.6144 19.5451 17.6209 17.9996V9.3905ZM19.1451 5.13121C18.2718 4.18464 17.7359 2.9759 17.6209 1.69316V1.15031H16.4517C16.5962 1.96568 16.9107 2.74151 17.3748 3.42737C17.8388 4.11322 18.442 4.69375 19.1451 5.13121ZM6.96572 20.1501C6.56047 19.6201 6.31212 18.9871 6.24894 18.323C6.18576 17.6588 6.31029 16.9903 6.60835 16.3935C6.9064 15.7967 7.36602 15.2955 7.93489 14.947C8.50375 14.5985 9.15902 14.4167 9.82612 14.4223C10.1944 14.4222 10.5606 14.4785 10.9118 14.5893V10.2744C10.5012 10.22 10.0871 10.1967 9.67301 10.2048V13.5593C8.81776 13.289 7.89208 13.3504 7.08008 13.7315C6.26809 14.1126 5.62929 14.7853 5.29073 15.616C4.95216 16.4466 4.93865 17.3742 5.25288 18.2143C5.56711 19.0544 6.18605 19.7455 6.9866 20.1501H6.96572Z" fill="white"/>
<path fill-rule="evenodd" clip-rule="evenodd" d="M16.3815 8.36048C18.098 9.59053 20.1576 10.2503 22.2693 10.2465V6.91983C21.0662 6.66544 19.9732 6.03983 19.1445 5.13121C18.4414 4.69375 17.8382 4.11322 17.3742 3.42737C16.9101 2.74151 16.5956 1.96568 16.4511 1.15031H13.3749V17.9996C13.3721 18.7454 13.1357 19.4715 12.6991 20.0762C12.2624 20.6808 11.6474 21.1335 10.9403 21.3707C10.2332 21.6079 9.46962 21.6178 8.75666 21.3989C8.04371 21.1799 7.41721 20.7432 6.96512 20.1501C6.24865 19.7886 5.67486 19.1962 5.33634 18.4686C4.99782 17.741 4.91431 16.9205 5.09928 16.1396C5.28426 15.3587 5.72692 14.6629 6.35586 14.1645C6.9848 13.666 7.76332 13.394 8.56583 13.3923C8.93404 13.3935 9.3 13.4498 9.65153 13.5593V10.2048C8.13266 10.2412 6.65748 10.7204 5.40708 11.5834C4.15668 12.4464 3.18548 13.6558 2.6127 15.063C2.03991 16.4702 1.89047 18.014 2.18271 19.505C2.47496 20.9959 3.19617 22.3691 4.25783 23.4559C5.43261 24.2402 6.79815 24.6912 8.20899 24.7608C9.61983 24.8304 11.0231 24.516 12.2694 23.8511C13.5157 23.1861 14.5582 22.1956 15.286 20.985C16.0139 19.7744 16.3997 18.389 16.4024 16.9765L16.3815 8.36048Z" fill="white"/>
<path fill-rule="evenodd" clip-rule="evenodd" d="M22.2693 6.91983L22.2697 6.02175C21.1648 6.02645 20.0814 5.71783 19.1451 5.13121C19.9717 6.04245 21.065 6.66858 22.2693 6.91983ZM16.4517 1.15031C16.4517 0.990236 16.4028 0.822917 16.3819 0.662846V0.119995H12.1365V16.9762C12.1328 17.92 11.7548 18.8239 11.0855 19.4893C10.4161 20.1548 9.51007 20.5275 8.56622 20.5256C8.01047 20.5284 7.46216 20.3999 6.96572 20.1501C7.41781 20.7432 8.04371 21.1799 8.75666 21.3989C9.46962 21.6178 10.2332 21.6079 10.9403 21.3707C11.6474 21.1335 12.2624 20.6808 12.6991 20.0762C13.1357 19.4715 13.3721 18.7454 13.3749 17.9996V1.15031H16.4517ZM9.65192 10.1975V9.24406C7.90498 9.00674 6.12916 9.3681 4.61388 10.2693C3.09861 11.1704 1.93322 12.5582 1.30765 14.2065C0.682084 15.8547 0.633222 17.6663 1.16903 19.3459C1.70484 21.0255 2.79393 22.4744 4.25843 23.4559C3.20481 22.3666 2.49107 20.9936 2.20479 19.5054C1.91851 18.0172 2.07188 16.4778 2.64616 15.0753C3.22044 13.6728 4.19077 12.468 5.43861 11.6079C6.68644 10.7479 8.15775 10.2699 9.6728 10.2323L9.65192 10.1975Z" fill="white"/>
</svg>
