<svg width="33" height="24" viewBox="0 0 33 24" fill="none" xmlns="http://www.w3.org/2000/svg">
<path fill-rule="evenodd" clip-rule="evenodd" d="M29.1915 1.46696C30.5676 1.83859 31.6492 2.92296 32.0148 4.2975C32.68 6.79205 32.68 12.0001 32.68 12.0001C32.68 12.0001 32.68 17.2081 32.0148 19.7026C31.6441 21.0822 30.5625 22.1666 29.1915 22.5331C26.7033 23.2001 16.72 23.2001 16.72 23.2001C16.72 23.2001 6.74184 23.2001 4.24856 22.5331C2.87244 22.1615 1.79083 21.0771 1.42522 19.7026C0.76001 17.2081 0.76001 12.0001 0.76001 12.0001C0.76001 12.0001 0.76001 6.79205 1.42522 4.2975C1.79591 2.91787 2.87752 1.8335 4.24856 1.46696C6.74184 0.800049 16.72 0.800049 16.72 0.800049C16.72 0.800049 26.7033 0.800049 29.1915 1.46696ZM21.8234 12.0001L13.5311 16.8008V7.19932L21.8234 12.0001Z" fill="white"/>
</svg>
