<svg width="24" height="45" viewBox="0 0 24 45" fill="none" xmlns="http://www.w3.org/2000/svg">
<path d="M6.50761 26.5873C6.10577 26.5873 5.70393 26.4869 5.33558 26.2748C4.5877 25.8506 4.14119 25.0915 4.14119 24.2431V20.2582C4.14119 19.9679 3.95143 19.4769 3.71702 19.1978L0.904089 16.2398C0.379459 15.7263 -6.10352e-05 14.8333 -6.10352e-05 14.1524V12.4223C-6.10352e-05 11.0716 1.02685 10 2.34401 10H12.2785C13.5734 10 14.6226 11.0493 14.6226 12.3441V13.9961C14.6226 14.8668 14.1203 15.8268 13.6292 16.3179L10.3586 19.2089C10.1019 19.421 9.88978 19.9346 9.88978 20.3141V23.5511C9.88978 24.3213 9.42098 25.1809 8.80705 25.5492L7.78007 26.2189C7.37822 26.4644 6.94294 26.5873 6.50761 26.5873ZM2.34401 11.6855C1.96449 11.6855 1.67429 12.0093 1.67429 12.4334V14.1636C1.67429 14.3533 1.86406 14.8333 2.10963 15.0789L4.98948 18.1039C5.41365 18.6285 5.82665 19.488 5.82665 20.2582V24.2431C5.82665 24.578 6.03881 24.7455 6.17275 24.8125C6.35135 24.913 6.64152 24.9688 6.88709 24.8125L7.92519 24.1427C8.05914 24.0645 8.21542 23.7521 8.21542 23.5623V20.3251C8.21542 19.4434 8.65075 18.4722 9.26468 17.9476L12.4794 15.1012C12.6804 14.9003 12.9483 14.3533 12.9483 13.9961V12.3441C12.9483 11.9757 12.6469 11.6744 12.2785 11.6744H2.34401V11.6855Z" fill="#F9931F"/>
<path d="M15.3482 34.0099H8.65076C2.58961 34.0099 -6.10352e-05 31.4203 -6.10352e-05 25.3591V22.0104C-6.10352e-05 21.5528 0.379459 21.1732 0.837116 21.1732C1.29477 21.1732 1.67429 21.5528 1.67429 22.0104V25.3591C1.67429 30.505 3.50492 32.3356 8.65076 32.3356H15.3482C20.494 32.3356 22.3246 30.505 22.3246 25.3591V18.6617C22.3246 15.4246 21.5656 13.5493 19.8578 12.5782C19.6792 12.4777 19.0876 12.2099 17.3909 11.942C16.9332 11.875 16.6207 11.4396 16.6988 10.982C16.777 10.5243 17.2123 10.2118 17.6588 10.2899C19.121 10.5243 20.1145 10.7922 20.6838 11.1159C22.9386 12.3996 23.999 14.7995 23.999 18.6617V25.3591C23.999 31.4203 21.4093 34.0099 15.3482 34.0099Z" fill="#F9931F"/>
<path d="M18.6976 23.9639H13.1164C12.6587 23.9639 12.2792 23.5844 12.2792 23.1267C12.2792 22.669 12.6587 22.2895 13.1164 22.2895H18.6976C19.1552 22.2895 19.5347 22.669 19.5347 23.1267C19.5347 23.5844 19.1552 23.9639 18.6976 23.9639Z" fill="#F9931F"/>
<path d="M18.6957 28.4289H10.882C10.4244 28.4289 10.0449 28.0493 10.0449 27.5917C10.0449 27.134 10.4244 26.7545 10.882 26.7545H18.6957C19.1533 26.7545 19.5329 27.134 19.5329 27.5917C19.5329 28.0493 19.1533 28.4289 18.6957 28.4289Z" fill="#F9931F"/>
</svg>
