<svg width="26" height="36" viewBox="0 0 26 36" fill="none" xmlns="http://www.w3.org/2000/svg">
<path d="M12.5034 24.3258C8.60383 24.3258 5.43359 21.1555 5.43359 17.256V9.0699C5.43359 5.17036 8.60383 2.00012 12.5034 2.00012C16.4029 2.00012 19.5732 5.17036 19.5732 9.0699V17.256C19.5732 21.1555 16.4029 24.3258 12.5034 24.3258ZM12.5034 4.23269C9.83919 4.23269 7.66616 6.40571 7.66616 9.0699V17.256C7.66616 19.9202 9.83919 22.0932 12.5034 22.0932C15.1676 22.0932 17.3406 19.9202 17.3406 17.256V9.0699C17.3406 6.40571 15.1676 4.23269 12.5034 4.23269Z" fill="#F9931F"/>
<path d="M12.5023 29.5348C5.61118 29.5348 0 23.9236 0 17.0324V14.5022C0 13.892 0.506047 13.3859 1.11628 13.3859C1.72652 13.3859 2.23256 13.892 2.23256 14.5022V17.0324C2.23256 22.6883 6.84653 27.3022 12.5023 27.3022C18.1582 27.3022 22.7721 22.6883 22.7721 17.0324V14.5022C22.7721 13.892 23.2782 13.3859 23.8884 13.3859C24.4986 13.3859 25.0047 13.892 25.0047 14.5022V17.0324C25.0047 23.9236 19.3935 29.5348 12.5023 29.5348Z" fill="#F9931F"/>
<path d="M14.5702 10.8261C14.4512 10.8261 14.3172 10.8112 14.1833 10.7666C13.0967 10.3647 11.906 10.3647 10.8195 10.7666C10.2391 10.9749 9.59907 10.6773 9.39066 10.0968C9.18229 9.51634 9.47997 8.87633 10.0605 8.66796C11.6381 8.10238 13.3795 8.10238 14.9572 8.66796C15.5377 8.87633 15.8354 9.51634 15.627 10.0968C15.4484 10.5433 15.0168 10.8261 14.5702 10.8261Z" fill="#F9931F"/>
<path d="M13.6933 13.9812C13.5891 13.9812 13.4998 13.9663 13.3956 13.9365C12.8003 13.7728 12.19 13.7728 11.5947 13.9365C10.9993 14.1002 10.3891 13.743 10.2254 13.1477C10.0617 12.5672 10.4189 11.957 11.0142 11.7932C11.9817 11.5253 13.0235 11.5253 13.991 11.7932C14.5863 11.957 14.9435 12.5672 14.7798 13.1626C14.6458 13.6537 14.1845 13.9812 13.6933 13.9812Z" fill="#F9931F"/>
<path d="M12.503 34.0001C11.8928 34.0001 11.3867 33.4941 11.3867 32.8838V28.4187C11.3867 27.8085 11.8928 27.3024 12.503 27.3024C13.1132 27.3024 13.6193 27.8085 13.6193 28.4187V32.8838C13.6193 33.4941 13.1132 34.0001 12.503 34.0001Z" fill="#F9931F"/>
</svg>
